<svg width="32" height="32" viewBox="0 0 32 32" fill="none" xmlns="http://www.w3.org/2000/svg">
  <!-- Background circle with gradient -->
  <defs>
    <linearGradient id="bgGradient" x1="0%" y1="0%" x2="100%" y2="100%">
      <stop offset="0%" style="stop-color:#1e3a8a;stop-opacity:1" />
      <stop offset="100%" style="stop-color:#312e81;stop-opacity:1" />
    </linearGradient>
    <linearGradient id="playGradient" x1="0%" y1="0%" x2="100%" y2="100%">
      <stop offset="0%" style="stop-color:#ef4444;stop-opacity:1" />
      <stop offset="100%" style="stop-color:#dc2626;stop-opacity:1" />
    </linearGradient>
    <!-- Drop shadow filter -->
    <filter id="shadow" x="-50%" y="-50%" width="200%" height="200%">
      <feDropShadow dx="0" dy="2" stdDeviation="3" flood-opacity="0.3"/>
    </filter>
  </defs>

  <!-- Main background -->
  <circle cx="16" cy="16" r="15" fill="url(#bgGradient)" stroke="#ffffff" stroke-width="1" opacity="0.95"/>

  <!-- Film strip border -->
  <rect x="4" y="8" width="4" height="2" fill="#ffffff" opacity="0.6"/>
  <rect x="4" y="12" width="4" height="2" fill="#ffffff" opacity="0.6"/>
  <rect x="4" y="16" width="4" height="2" fill="#ffffff" opacity="0.6"/>
  <rect x="4" y="20" width="4" height="2" fill="#ffffff" opacity="0.6"/>
  <rect x="24" y="8" width="4" height="2" fill="#ffffff" opacity="0.6"/>
  <rect x="24" y="12" width="4" height="2" fill="#ffffff" opacity="0.6"/>
  <rect x="24" y="16" width="4" height="2" fill="#ffffff" opacity="0.6"/>
  <rect x="24" y="20" width="4" height="2" fill="#ffffff" opacity="0.6"/>

  <!-- Play button -->
  <path d="M12 10 L12 22 L22 16 Z" fill="url(#playGradient)" filter="url(#shadow)" stroke="#ffffff" stroke-width="0.5" stroke-linejoin="round"/>

  <!-- Small detail dots -->
  <circle cx="16" cy="6" r="1" fill="#ffffff" opacity="0.4"/>
  <circle cx="16" cy="26" r="1" fill="#ffffff" opacity="0.4"/>
</svg>